<?xml version="1.0" standalone="no"?>
<!DOCTYPE svg PUBLIC "-//W3C//DTD SVG 1.1//EN" "http://www.w3.org/Graphics/SVG/1.1/DTD/svg11.dtd">
<svg class="icon" width="100%" height="100%" viewBox="0 0 1024 1024" version="1.1" xmlns="http://www.w3.org/2000/svg">
  <path
    fill="#ffffff"
    d="M128 938.666667a42.666667 42.666667 0 0 1-42.666667-42.666667V384a42.666667 42.666667 0 0 1 18.986667-35.477333l383.210667-256a42.666667 42.666667 0 0 1 47.338666-0.042667l384.768 256A42.666667 42.666667 0 0 1 938.666667 384v512a42.666667 42.666667 0 0 1-42.666667 42.666667H128z m341.333333-21.333334a21.333333 21.333333 0 0 1-20.970666 21.333334l127.274666-0.021334-2.133333-0.128A21.333333 21.333333 0 0 1 554.666667 917.333333v-64h-85.333334v64z m0-64.021333L448 853.333333h21.333333v-0.021333zM576 853.333333l-21.333333-0.021333V853.333333h21.333333zM511.274667 179.285333L170.666667 406.805333V853.333333h213.333333V597.333333a42.666667 42.666667 0 0 1 42.666667-42.666666h170.666666a42.666667 42.666667 0 0 1 42.666667 42.666666v256h213.333333V406.869333L511.274667 179.285333zM554.666667 640h-85.333334v213.312h85.333334V640z" />
</svg>